<?xml version="1.0" standalone="no"?>
<!DOCTYPE svg PUBLIC "-//W3C//DTD SVG 20010904//EN"
 "http://www.w3.org/TR/2001/REC-SVG-20010904/DTD/svg10.dtd">
<svg version="1.0" xmlns="http://www.w3.org/2000/svg"
 width="667.000000pt" height="200.000000pt" viewBox="0 0 667.000000 200.000000"
 preserveAspectRatio="xMidYMid meet">

<g transform="translate(0.000000,200.000000) scale(0.100000,-0.100000)"
fill="#000000" stroke="none">
<path d="M1694 1342 c3 -5 -9 -13 -27 -17 l-32 -7 35 -11 c19 -6 28 -12 20
-13 -8 -1 -32 -5 -52 -9 -36 -6 -54 -25 -24 -25 30 0 27 -21 -4 -32 -23 -8
-28 -13 -18 -19 10 -7 9 -9 -6 -9 -12 0 -16 -5 -12 -16 3 -9 6 -20 6 -25 0 -5
8 -9 17 -9 14 0 13 -4 -6 -24 -22 -23 -43 -105 -24 -93 6 4 8 -12 6 -46 -3
-38 -2 -48 6 -37 8 11 9 5 5 -22 -5 -31 -2 -41 20 -63 14 -14 26 -32 26 -40 0
-18 16 -20 23 -2 3 6 6 -1 6 -16 1 -43 30 -80 57 -73 12 3 24 3 26 -2 2 -4 23
-17 47 -30 39 -19 46 -20 60 -8 9 8 28 18 44 21 15 4 30 11 33 16 3 5 15 7 27
4 18 -5 25 1 37 27 8 18 13 42 11 53 -3 16 -1 17 13 6 14 -11 16 -11 16 2 0 9
12 28 26 42 20 20 25 34 22 59 -3 25 0 32 9 29 15 -6 16 10 4 55 -6 20 -6 30
0 27 18 -12 9 53 -12 79 -19 24 -19 27 -5 42 21 21 20 44 -1 45 -13 0 -14 2
-4 6 10 4 4 12 -20 24 -32 18 -33 19 -11 25 45 13 18 33 -46 35 l-37 1 40 13
40 12 -38 8 c-28 5 -35 10 -25 17 8 5 -13 7 -57 4 -88 -7 -87 -7 -164 0 -40 4
-61 2 -57 -4z m114 -66 c24 -12 30 -12 47 0 10 8 26 14 34 14 14 0 14 -1 1
-10 -12 -8 -10 -10 10 -11 14 0 33 -4 43 -8 15 -6 12 -10 -19 -24 -33 -16 -36
-16 -30 -1 5 14 2 15 -21 9 -33 -9 -50 -9 -80 0 -14 5 -22 2 -25 -7 -2 -10
-10 -9 -38 5 -21 12 -26 17 -12 14 12 -3 22 -1 22 4 0 5 9 9 21 9 11 0 17 5
14 10 -8 14 1 13 33 -4z m56 -67 c-4 -8 7 -10 39 -8 30 3 43 1 36 -6 -6 -6 -2
-15 12 -26 21 -16 21 -16 -22 -38 -24 -12 -36 -20 -26 -17 9 3 17 1 17 -4 0
-6 -9 -10 -19 -10 -12 0 -21 -9 -25 -26 -4 -15 -5 -28 -3 -31 3 -2 7 8 11 22
4 14 12 25 18 25 7 0 23 12 35 27 22 24 23 25 23 5 0 -11 -4 -32 -10 -47 -7
-17 -7 -24 0 -20 21 13 9 -24 -20 -60 -32 -40 -37 -50 -20 -40 7 4 8 -3 4 -22
-9 -38 -13 -43 -30 -43 -11 0 -12 -4 -4 -20 8 -15 6 -21 -9 -30 -11 -5 -29
-10 -41 -10 -12 0 -30 5 -41 10 -15 9 -17 15 -9 30 9 16 7 20 -5 20 -14 0 -33
51 -27 73 1 5 -9 22 -23 39 -26 30 -35 65 -13 52 8 -5 9 -2 3 12 -14 31 -13
94 2 106 9 7 10 15 4 22 -7 8 4 11 39 10 27 -1 54 -5 60 -9 7 -4 19 0 28 9 19
19 26 21 16 5z m-244 -28 c0 -5 -7 -11 -15 -15 -9 -3 -15 0 -15 9 0 8 7 15 15
15 8 0 15 -4 15 -9z m450 -6 c0 -9 -6 -12 -15 -9 -8 4 -15 10 -15 15 0 5 7 9
15 9 8 0 15 -7 15 -15z m-395 -74 c0 -39 -3 -47 -12 -39 -20 17 -15 -1 17 -57
16 -28 36 -82 44 -118 7 -37 21 -79 31 -93 l17 -26 -31 18 c-17 10 -31 27 -31
37 0 10 -5 15 -11 12 -7 -5 -8 7 -4 38 5 32 2 53 -9 76 -19 35 -27 40 -19 11
3 -11 2 -32 -3 -47 -7 -26 -8 -24 -16 22 -5 28 -11 67 -14 88 -6 34 -7 36 -20
20 -12 -16 -12 -14 -4 16 5 19 22 47 37 63 15 15 27 28 27 28 1 0 1 -22 1 -49z
m372 -30 c8 -18 11 -36 8 -39 -3 -3 -9 5 -13 18 -6 22 -8 19 -14 -20 -25 -152
-24 -147 -32 -117 -5 15 -6 36 -3 47 8 32 -3 23 -19 -15 -9 -23 -12 -49 -8
-77 5 -30 4 -39 -4 -34 -7 4 -12 1 -12 -9 0 -17 -37 -54 -54 -55 -5 0 -1 9 9
19 9 11 23 52 31 91 7 40 27 95 44 124 31 55 37 71 21 62 -5 -3 -11 14 -13 38
l-3 45 24 -22 c13 -12 30 -37 38 -56z m-142 -321 c-3 -5 -14 -10 -25 -10 -10
0 -20 -7 -24 -15 -3 -8 -14 -15 -25 -15 -11 0 -26 7 -35 15 -8 8 -19 15 -25
15 -5 0 -13 5 -16 10 -4 6 23 10 75 10 52 0 79 -4 75 -10z"/>
<path d="M1747 1103 c17 -15 33 -37 36 -48 2 -11 3 -2 0 20 -5 47 -1 42 -38
50 l-30 6 32 -28z m18 -1 c-3 -3 -11 0 -18 7 -9 10 -8 11 6 5 10 -3 15 -9 12
-12z"/>
<path d="M1804 955 c31 -28 31 -29 10 -49 -14 -15 -13 -16 15 -16 28 0 30 2
19 19 -10 16 -9 23 5 39 25 28 22 32 -29 32 l-47 0 27 -25z"/>
<path d="M3163 1255 c-77 -46 -105 -153 -62 -237 20 -40 21 -40 40 -22 17 18
18 21 2 65 -15 41 -15 50 -2 85 27 71 107 103 173 69 28 -15 31 -14 49 4 20
19 20 20 -14 40 -49 30 -131 28 -186 -4z"/>
<path d="M3635 1257 c-59 -34 -87 -87 -83 -163 2 -37 11 -72 22 -89 18 -27 18
-27 37 -8 18 18 19 21 4 49 -31 60 -7 137 54 169 39 19 74 19 118 -1 31 -15
36 -15 50 -1 19 19 10 35 -33 53 -51 21 -122 17 -169 -9z"/>
<path d="M2330 1100 l0 -170 25 0 25 0 0 170 0 170 -25 0 -25 0 0 -170z"/>
<path d="M2400 1245 c0 -18 5 -25 20 -25 15 0 20 7 20 25 0 18 -5 25 -20 25
-15 0 -20 -7 -20 -25z"/>
<path d="M2460 1245 c0 -14 6 -25 13 -25 23 0 47 -35 47 -67 0 -30 -26 -63
-48 -63 -7 0 -12 -11 -12 -25 0 -29 17 -32 59 -10 39 19 65 77 56 123 -13 69
-115 129 -115 67z"/>
<path d="M2710 1229 l0 -40 46 33 c25 18 48 36 50 40 3 5 -18 8 -45 8 l-51 0
0 -41z"/>
<path d="M2840 1245 c0 -14 6 -25 13 -25 21 0 47 -34 47 -62 0 -14 -9 -33 -20
-43 -15 -13 -17 -22 -9 -36 32 -60 99 39 78 115 -18 65 -109 107 -109 51z"/>
<path d="M4010 1229 l0 -40 46 33 c25 18 48 36 50 40 3 5 -18 8 -45 8 l-51 0
0 -41z"/>
<path d="M4140 1245 c0 -14 6 -25 13 -25 21 0 47 -34 47 -62 0 -14 -9 -33 -20
-43 -15 -13 -17 -22 -9 -36 26 -49 79 7 79 83 0 41 -5 54 -29 79 -38 38 -81
40 -81 4z"/>
<path d="M4505 1243 c10 -44 21 -46 32 -8 11 34 10 35 -14 35 -22 0 -24 -3
-18 -27z"/>
<path d="M4800 1100 l0 -170 30 0 30 0 0 148 c0 142 -1 149 -23 170 -13 12
-26 22 -30 22 -4 0 -7 -76 -7 -170z"/>
<path d="M5041 1213 c-63 -50 -71 -60 -71 -90 l0 -34 75 61 c62 51 75 66 75
91 0 16 -2 29 -4 29 -1 0 -35 -25 -75 -57z"/>
<path d="M4552 1235 c-18 -39 -16 -48 34 -182 45 -119 47 -123 76 -123 25 0
29 3 23 18 -4 9 -31 82 -61 161 -30 80 -56 146 -58 148 -1 2 -8 -8 -14 -22z"/>
<path d="M3371 1206 c-10 -11 -9 -24 2 -57 11 -31 12 -51 5 -73 -5 -17 -12
-38 -15 -47 -2 -8 3 -21 12 -29 20 -17 37 -1 54 49 16 48 14 79 -9 129 -20 45
-30 51 -49 28z"/>
<path d="M4884 1175 c-9 -23 3 -45 25 -45 25 0 34 14 26 40 -7 23 -43 27 -51
5z"/>
<path d="M5093 1171 c-21 -18 -23 -27 -23 -130 l0 -111 25 0 25 0 0 130 c0 72
-1 130 -2 130 -2 -1 -13 -9 -25 -19z"/>
<path d="M4456 1172 c-8 -14 -86 -225 -86 -234 0 -5 12 -8 27 -6 25 3 31 13
69 113 24 61 43 116 43 123 1 13 -45 17 -53 4z"/>
<path d="M2710 1050 l0 -120 25 0 25 0 0 120 0 120 -25 0 -25 0 0 -120z"/>
<path d="M4010 1050 l0 -120 25 0 25 0 0 120 0 120 -25 0 -25 0 0 -120z"/>
<path d="M3284 1145 c-9 -23 3 -45 26 -45 25 0 37 25 20 45 -16 19 -39 19 -46
0z"/>
<path d="M3657 1122 c-16 -18 -16 -20 1 -35 18 -16 20 -16 35 1 16 18 16 20
-1 35 -18 16 -20 16 -35 -1z"/>
<path d="M3176 1102 c-15 -18 -15 -20 2 -35 18 -16 20 -16 37 3 14 16 15 22 5
35 -16 19 -23 19 -44 -3z"/>
<path d="M2780 1094 c0 -3 27 -41 60 -85 52 -67 65 -79 90 -79 17 0 30 2 30 5
0 2 -28 40 -62 85 -51 67 -66 80 -90 80 -15 0 -28 -3 -28 -6z"/>
<path d="M4080 1093 c0 -5 28 -43 61 -85 51 -66 65 -78 90 -78 16 0 29 2 29 5
0 3 -28 41 -62 85 -52 65 -68 80 -90 80 -16 0 -28 -3 -28 -7z"/>
<path d="M2393 1074 c-3 -8 2 -23 11 -32 15 -15 17 -15 33 0 13 14 14 20 3 32
-16 20 -39 20 -47 0z"/>
<path d="M3790 1087 c0 -1 20 -20 45 -40 l45 -38 0 41 0 40 -45 0 c-25 0 -45
-1 -45 -3z"/>
<path d="M4494 1035 c-4 -9 0 -23 9 -32 21 -21 49 -9 45 19 -4 28 -45 38 -54
13z"/>
<path d="M3820 1022 c0 -4 -13 -15 -29 -25 -35 -21 -100 -22 -127 -3 -17 13
-21 12 -36 -1 -24 -22 -23 -30 10 -46 69 -35 146 -28 202 20 29 24 30 26 14
44 -18 20 -34 25 -34 11z"/>
<path d="M3154 988 c-19 -20 -18 -23 26 -47 46 -25 126 -19 176 14 24 16 25
18 9 35 -16 18 -20 18 -46 5 -35 -19 -86 -19 -121 -1 -24 13 -28 12 -44 -6z"/>
<path d="M2348 829 c-21 -12 -24 -59 -6 -77 7 -7 21 -12 33 -12 18 0 17 2 -5
13 -31 16 -32 49 -2 62 12 5 22 13 22 17 0 11 -22 9 -42 -3z"/>
<path d="M2530 790 c0 -48 1 -50 28 -49 23 2 24 2 5 6 -27 5 -31 30 -5 36 16
4 16 5 0 6 -25 1 -23 31 2 31 11 0 20 5 20 10 0 6 -11 10 -25 10 -23 0 -25 -3
-25 -50z"/>
<path d="M2712 790 c0 -47 2 -50 7 -20 l6 35 20 -32 c11 -18 23 -33 27 -33 4
0 7 24 7 53 l-2 52 -7 -40 c-4 -22 -8 -35 -9 -30 0 6 -12 24 -26 40 l-24 30 1
-55z"/>
<path d="M2920 830 c0 -5 5 -10 10 -10 6 0 10 -18 10 -40 0 -22 5 -40 10 -40
6 0 10 18 10 40 0 22 5 40 10 40 6 0 10 5 10 10 0 6 -13 10 -30 10 -16 0 -30
-4 -30 -10z"/>
<path d="M3110 790 c0 -48 1 -50 28 -49 23 2 24 2 5 6 -27 5 -31 33 -5 33 16
1 16 1 0 11 -24 13 -23 29 2 29 11 0 20 5 20 10 0 6 -11 10 -25 10 -23 0 -25
-3 -25 -50z"/>
<path d="M3291 788 c0 -46 2 -50 11 -28 l10 25 15 -22 c19 -28 38 -31 24 -5
-6 10 -7 29 -4 41 6 25 -9 41 -39 41 -15 0 -18 -9 -17 -52z m47 20 c-3 -7 -11
-13 -18 -13 -7 0 -15 6 -17 13 -3 7 4 12 17 12 13 0 20 -5 18 -12z"/>
</g>
</svg>
